<?xml version="1.0" encoding="UTF-8"?>
<svg width="30px" height="38px" viewBox="0 0 30 38" version="1.1" xmlns="http://www.w3.org/2000/svg" xmlns:xlink="http://www.w3.org/1999/xlink">
    <!-- Generator: Sketch 59.1 (86144) - https://sketch.com -->
    <title>Group@1x</title>
    <desc>Created with Sketch.</desc>
    <g id="Page-1" stroke="none" stroke-width="1" fill="none" fill-rule="evenodd">
        <g id="Group" transform="translate(1.000000, 1.000000)" stroke="#FFFFFF">
            <path d="M9,0 C11.2222222,2 12.8888889,3 14,3 C15.1111111,3 16.7777778,2 19,0 C18.3599931,5.39201932 17.6933264,9.05868598 17,11 C16.3066736,12.941314 15.3066736,13.941314 14,14 C12.6261003,13.7530808 11.6261003,12.7530808 11,11 C10.3738997,9.24691919 9.70723304,5.58025252 9,0 Z" id="Path-2" fill="#FF9CC8" stroke-linejoin="round"></path>
            <path d="M17,2 L19.4586903,1.18043656 L23,0 C23.7374082,4.99807632 24.4040749,8.33140965 25,10 C25.5959251,11.6685903 26.5959251,13.0019237 28,14 L28,35 L27,36 L15,36 L14,35 L14,21 C16.2857854,16.7455815 17.6191187,13.4122482 18,11 C18.3808813,8.58775184 18.047548,5.58775184 17,2 Z" id="Path" fill="#FF9CC8" transform="translate(21.000000, 18.000000) scale(-1, 1) translate(-21.000000, -18.000000) "></path>
            <path d="M3,2 L5.45869033,1.18043656 L9,0 C9.73740821,4.99807632 10.4040749,8.33140965 11,10 C11.5959251,11.6685903 12.5959251,13.0019237 14,14 L14,35 L13,36 L1,36 L0,35 L0,21 C2.28578538,16.7455815 3.61911871,13.4122482 4,11 C4.38088129,8.58775184 4.04754796,5.58775184 3,2 Z" id="Path" fill="#FF9CC8"></path>
            <rect id="Rectangle" fill="#D8D8D8" x="0.5" y="30.5" width="27" height="2"></rect>
            <rect id="Rectangle" fill="#D8D8D8" x="0.5" y="23.5" width="27" height="2"></rect>
        </g>
    </g>
</svg>