<?xml version="1.0" encoding="UTF-8"?>
<svg width="29px" height="28px" viewBox="0 0 28 28" version="1.1" xmlns="http://www.w3.org/2000/svg" xmlns:xlink="http://www.w3.org/1999/xlink">
    <g id="earth" stroke-linejoin="round" stroke-width="1" fill="none" fill-rule="evenodd" stroke="#FFFFFF">
        <circle id="turtlesallthewaydown" cx="14" cy="14" r="13.5"></circle>
        <path d="M15.502439,12.702439 L13.5902439,14.7512195 L13.5902439,16.9365854 L14.9560976,17.8243902 L16.595122,17.8243902 L17.7560976,18.6439024 L17.2780488,19.8731707 L17.2780488,20.6926829 L17.2780488,22.1268293 L16.595122,23.3560976 L17.2780488,24.3804878 L19.5317073,23.3560976 L20.3512195,21.5804878 C20.9430894,20.7154472 21.3300813,20.1463415 21.5121951,19.8731707 C21.6943089,19.6 22.4682927,18.9170732 23.8341463,17.8243902 L22.9463415,16.9365854 L21.5121951,14.7512195 L21.5121951,13.5219512 L18.7121951,13.1121951 L18.7121951,12.1560976 L15.502439,12.702439 Z" id="Path"></path>
        <polygon id="Path-2" points="10.3121951 18.9170732 7.92195122 18.2341463 7.92195122 16.8682927 6.0097561 15.7073171 4.09756098 15.7073171 3.48292683 14 2.8 13.2487805 4.09756098 12.1560976 6.0097561 9.76585366 9.01463415 8.74146341 7.92195122 6.4195122 6.55609756 5.80487805 6.0097561 7.23902439 4.91707317 6.4195122 6.55609756 5.32682927 4.91707317 3.6195122 2.8 6.4195122 1.22926829 10.5170732 1.84390244 13.2487805 2.8 14.7512195 4.09756098 16.1853659 4.09756098 17.6195122 4.09756098 18.9170732 5.73658537 20.4878049 6.55609756 23.5609756 9.01463415 26.2926829 7.92195122 24.3804878 9.01463415 22.4"></polygon>
        <polygon id="Path-3" points="5.73658537 3.2097561 7.85365854 2.52682927 9.49268293 1.63902439 11.5414634 1.63902439 14.1365854 1.63902439 15.6390244 2.86829268 14.1365854 4.98536585 12.2243902 5.39512195 10.3121951 6.76097561 9.49268293 4.98536585 10.3121951 3.2097561 8.60487805 3.2097561 8.60487805 5.39512195 7.85365854 6.21463415 6.96585366 5.39512195"></polygon>
        <polygon id="Path-4" points="13.5902439 6.76097561 14.9560976 6.76097561 14.9560976 5.94146341"></polygon>
        <polygon id="Path-4" transform="translate(16.321951, 8.160976) scale(1, -1) rotate(-86.000000) translate(-16.321951, -8.160976) " points="15.6390244 8.60487805 17.004878 8.60487805 17.004878 7.71707317"></polygon>
        <path d="M27.3853659,15.4585366 L25.8829268,17.7121951 L25.5414634,14.5707317 L23.8341463,16.1414634 L22.4,13.9560976 L22.4,12.2487805 L20.3512195,12.2487805 L18.7121951,10.5414634 L18.097561,10.1317073 L17.2097561,10.5414634 L16.6634146,11.1560976 L15.6390244,11.1560976 L15.6390244,9.58536585 L16.6634146,9.58536585 L16.2536585,8.69756098 C16.468299,8.72016884 16.7187055,8.69740462 17.004878,8.62926829 C17.2910506,8.56113197 17.5186929,8.47007506 17.6878049,8.35609756 L18.7121951,7.8097561 L18.097561,5.76097561 L20.3512195,4.25853659 L21.4,5.35121951 L22.8341463,4.25853659 L23.3121951,4.25853659 L25.6341463,7.12682927 L27,10.9512195 L27.3853659,15.4585366 Z" id="Path-5"></path>
    </g>
</svg>