<?xml version="1.0" encoding="UTF-8"?>
<svg width="16px" height="16px" viewBox="0 0 16 16" version="1.1" xmlns="http://www.w3.org/2000/svg" xmlns:xlink="http://www.w3.org/1999/xlink">
    <rect fill="#E88B02" x="0" y="0" width="16" height="16"></rect>
    <path d="M8.28280732,2.66137702 C7.3685216,2.66137702 6.71137875,2.91851988 6.25423589,3.28994845 L5.73995018,2.77566274 C5.73995018,2.77566274 5.73995018,2.77566274 5.71137875,2.74709131 L5.71137875,2.74709131 L5.71137875,2.74709131 C5.65423589,2.68994845 5.53995018,2.6328056 5.45423589,2.6328056 C5.22566446,2.6328056 5.05423589,2.80423417 5.05423589,3.0328056 C5.05423589,3.14709131 5.11137875,3.2328056 5.1685216,3.31851988 L5.1685216,3.31851988 L5.68280732,3.86137702 L6.85423589,3.86137702 C7.51137875,3.4328056 8.28280732,3.4328056 8.28280732,3.4328056 C8.28280732,3.4328056 10.7113787,3.4328056 10.7113787,5.86137702 L10.7113787,8.68994845 C10.7113787,8.91851988 10.8828073,9.08994845 11.1113787,9.08994845 C11.3399502,9.08994845 11.5113787,8.91851988 11.5113787,8.68994845 L11.5113787,5.86137702 C11.5113787,5.91851988 11.5113787,2.66137702 8.28280732,2.66137702 Z" fill="#FFFFFF" transform="translate(8.282807, 5.861377) scale(-1, 1) rotate(35.000000) translate(-8.282807, -5.861377) "></path>
    <path d="M10.7029232,12.58118 L10.1886375,12.0383228 L9.01720894,12.0383228 C8.36006608,12.4668942 7.58863751,12.4668942 7.58863751,12.4668942 C7.58863751,12.4668942 5.16006608,12.4668942 5.16006608,10.0383228 L5.16006608,7.20975139 C5.16006608,6.98117996 4.98863751,6.80975139 4.76006608,6.80975139 C4.53149465,6.80975139 4.36006608,6.98117996 4.36006608,7.20975139 L4.36006608,10.0383228 C4.36006608,10.0383228 4.36006608,13.2668942 7.58863751,13.2668942 C8.50292322,13.2668942 9.16006608,13.0097514 9.61720894,12.6383228 L10.1314947,13.1526085 C10.1314947,13.1526085 10.1314947,13.1526085 10.1600661,13.18118 L10.1600661,13.18118 L10.1600661,13.18118 C10.2172089,13.2383228 10.3314947,13.2954657 10.4172089,13.2954657 C10.6457804,13.2954657 10.8172089,13.1240371 10.8172089,12.8954657 C10.8172089,12.7526085 10.7600661,12.6668942 10.7029232,12.58118 L10.7029232,12.58118 L10.7029232,12.58118 L10.7029232,12.58118 Z" fill="#000000" transform="translate(7.588638, 10.052609) scale(-1, 1) rotate(35.000000) translate(-7.588638, -10.052609) "></path>
</svg>