<?xml version="1.0" encoding="UTF-8"?>
<svg width="28px" height="28px" viewBox="0 0 28 28" version="1.1" xmlns="http://www.w3.org/2000/svg" xmlns:xlink="http://www.w3.org/1999/xlink">
    <g id="tape" transform="translate(0.000000, 0.500000)" stroke="#FFFFFF" stroke-width="1" fill="none" >
        <rect id="Rectangle" x="0.5" y="20" width="27" height="7" rx="1"></rect>
        <line x1="2" y1="21.5" x2="2" y2="26.5" id="Line" stroke-linecap="round" stroke-linejoin="round"></line>
        <line x1="6" y1="24.25" x2="6" y2="26.75" id="Line" stroke-linecap="round" stroke-linejoin="round"></line>
        <line x1="4" y1="24.25" x2="4" y2="26.75" id="Line" stroke-linecap="round" stroke-linejoin="round"></line>
        <line x1="10" y1="24.25" x2="10" y2="26.75" id="Line" stroke-linecap="round" stroke-linejoin="round"></line>
        <line x1="8" y1="24.25" x2="8" y2="26.75" id="Line" stroke-linecap="round" stroke-linejoin="round"></line>
        <line x1="12" y1="21.5" x2="12" y2="26.5" id="Line" stroke-linecap="round" stroke-linejoin="round"></line>
        <line x1="16" y1="24.25" x2="16" y2="26.75" id="Line" stroke-linecap="round" stroke-linejoin="round"></line>
        <line x1="14" y1="24.25" x2="14" y2="26.75" id="Line" stroke-linecap="round" stroke-linejoin="round"></line>
        <line x1="20" y1="24.25" x2="20" y2="26.75" id="Line" stroke-linecap="round" stroke-linejoin="round"></line>
        <line x1="18" y1="24.25" x2="18" y2="26.75" id="Line" stroke-linecap="round" stroke-linejoin="round"></line>
        <line x1="22" y1="21.5" x2="22" y2="26.5" id="Line" stroke-linecap="round" stroke-linejoin="round"></line>
        <line x1="26" y1="24.25" x2="26" y2="26.75" id="Line" stroke-linecap="round" stroke-linejoin="round"></line>
        <line x1="24" y1="24.25" x2="24" y2="26.75" id="Line" stroke-linecap="round" stroke-linejoin="round"></line>
        <line x1="0.5" y1="16" x2="23.5" y2="16" id="Line-2" stroke-linecap="round"></line>
        <path d="M23.9718253,16 L27.5,18.1169048 L27.5,13.8830952 L23.9718253,16 Z" id="Triangle" transform="translate(25.500000, 16.000000) scale(-1, 1) translate(-25.500000, -16.000000) "></path>
        <line x1="9" y1="9.5" x2="23" y2="9.5" id="Line-2" stroke-linecap="round"></line>
        <path d="M23.9718253,9.5 L27.5,11.6169048 L27.5,7.38309519 L23.9718253,9.5 Z" id="Triangle" transform="translate(25.500000, 9.500000) scale(-1, 1) translate(-25.500000, -9.500000) "></path>
        <line x1="17.5" y1="3" x2="23.5" y2="3" id="Line-2" stroke-linecap="round"></line>
        <path d="M23.9718253,3 L27.5,5.11690481 L27.5,0.883095189 L23.9718253,3 Z" id="Triangle" transform="translate(25.500000, 3.000000) scale(-1, 1) translate(-25.500000, -3.000000) "></path>
    </g>
</svg>